<?xml version="1.0" encoding="UTF-8"?>
<!-- Do not edit this file with editors other than draw.io -->
<!DOCTYPE svg PUBLIC "-//W3C//DTD SVG 1.1//EN" "http://www.w3.org/Graphics/SVG/1.1/DTD/svg11.dtd">
<svg xmlns="http://www.w3.org/2000/svg" xmlns:xlink="http://www.w3.org/1999/xlink" version="1.1" width="40px" height="40px" viewBox="-0.5 -0.5 40 40" content="&lt;mxfile host=&quot;Electron&quot; agent=&quot;Mozilla/5.0 (Windows NT 10.0; Win64; x64) AppleWebKit/537.36 (KHTML, like Gecko) draw.io/24.7.17 Chrome/128.0.6613.36 Electron/32.0.1 Safari/537.36&quot; version=&quot;24.7.17&quot; scale=&quot;1&quot; border=&quot;0&quot;&gt;&#10;  &lt;diagram name=&quot;Page-1&quot; id=&quot;ovaOed1oxjSJyqmeskj2&quot;&gt;&#10;    &lt;mxGraphModel dx=&quot;339&quot; dy=&quot;238&quot; grid=&quot;1&quot; gridSize=&quot;10&quot; guides=&quot;1&quot; tooltips=&quot;1&quot; connect=&quot;1&quot; arrows=&quot;1&quot; fold=&quot;1&quot; page=&quot;1&quot; pageScale=&quot;1&quot; pageWidth=&quot;827&quot; pageHeight=&quot;1169&quot; math=&quot;0&quot; shadow=&quot;0&quot;&gt;&#10;      &lt;root&gt;&#10;        &lt;mxCell id=&quot;0&quot; /&gt;&#10;        &lt;mxCell id=&quot;1&quot; parent=&quot;0&quot; /&gt;&#10;        &lt;mxCell id=&quot;sKpB_dBU_dlnF5NK-f6c-1&quot; value=&quot;&quot; style=&quot;html=1;strokeWidth=1;shadow=0;dashed=0;shape=mxgraph.ios7.misc.wifi;fillColor=#007AFF;strokeColor=none;buttonText=;strokeColor2=#222222;fontColor=#222222;fontSize=8;verticalLabelPosition=bottom;verticalAlign=top;align=center;sketch=0;&quot; vertex=&quot;1&quot; parent=&quot;1&quot;&gt;&#10;          &lt;mxGeometry x=&quot;360&quot; y=&quot;360&quot; width=&quot;40&quot; height=&quot;40&quot; as=&quot;geometry&quot; /&gt;&#10;        &lt;/mxCell&gt;&#10;      &lt;/root&gt;&#10;    &lt;/mxGraphModel&gt;&#10;  &lt;/diagram&gt;&#10;&lt;/mxfile&gt;&#10;"><defs/><g><g data-cell-id="0"><g data-cell-id="1"><g data-cell-id="sKpB_dBU_dlnF5NK-f6c-1"><g><path d="M 0 8 C 0 3.58 3.58 0 8 0 L 32 0 C 36.42 0 40 3.58 40 8 L 40 32 C 40 36.42 36.42 40 32 40 L 8 40 C 3.58 40 0 36.42 0 32 Z" fill="#007aff" stroke="none" pointer-events="all"/><path d="M 7.6 17 C 10.78 13.52 15.28 11.53 20 11.53 C 24.72 11.53 29.22 13.52 32.4 17 L 30.2 18.8 C 27.55 15.99 23.86 14.39 20 14.39 C 16.14 14.39 12.45 15.99 9.8 18.8 Z" fill="#ffffff" stroke="none" pointer-events="all"/><path d="M 12.2 20.8 C 16.69 16.96 23.31 16.96 27.8 20.8 L 25.6 22.8 C 22.35 20.12 17.65 20.12 14.4 22.8 Z" fill="#ffffff" stroke="none" pointer-events="all"/><path d="M 16.8 25.4 C 18.62 23.77 21.38 23.77 23.2 25.4 L 20 28.6 Z" fill="#ffffff" stroke="none" pointer-events="all"/></g></g></g></g></g></svg>